<?xml version="1.0" encoding="utf-8"?>
<!-- Generator: Adobe Illustrator 22.1.0, SVG Export Plug-In . SVG Version: 6.00 Build 0)  -->
<svg version="1.1" id="Layer_1" xmlns="http://www.w3.org/2000/svg" xmlns:xlink="http://www.w3.org/1999/xlink" x="0px" y="0px"
	 viewBox="0 0 72.5 72.5" style="enable-background:new 0 0 72.5 72.5;" xml:space="preserve">
<style type="text/css">
	.st0{fill:#555555;}
</style>
<path class="st0" d="M9.1,36.3c0,15,12.2,27.2,27.2,27.2c15,0,27.2-12.2,27.2-27.2S51.3,9.1,36.3,9.1C21.2,9.1,9.1,21.2,9.1,36.3z
	 M58.9,36c0,12.5-10.1,22.7-22.7,22.7S13.6,48.5,13.6,36s10.1-22.7,22.7-22.7S58.9,23.5,58.9,36z"/>
<path class="st0" d="M18.1,36.3c0,10,8.1,18.1,18.1,18.1c10,0,18.1-8.1,18.1-18.1s-8.1-18.1-18.1-18.1
	C26.2,18.1,18.1,26.2,18.1,36.3z M49.8,36.3c0,7.5-6.1,13.6-13.6,13.6s-13.6-6.1-13.6-13.6s6.1-13.6,13.6-13.6S49.8,28.7,49.8,36.3z
	"/>
<path class="st0" d="M0,36.3c0,20,16.2,36.3,36.3,36.3h24.7c0,0,11.6,0.3,11.6-11.3V36.3C72.5,16.2,56.3,0,36.3,0S0,16.2,0,36.3z
	 M68,36.3C68,53.8,53.8,68,36.3,68S4.5,53.8,4.5,36.3S18.7,4.5,36.3,4.5S68,18.7,68,36.3z"/>
</svg>
