<?xml version="1.0" encoding="utf-8"?>
<!-- Generator: Adobe Illustrator 22.1.0, SVG Export Plug-In . SVG Version: 6.00 Build 0)  -->
<svg version="1.1" id="Layer_1" xmlns="http://www.w3.org/2000/svg" xmlns:xlink="http://www.w3.org/1999/xlink" x="0px" y="0px"
	 viewBox="0 0 519.5 72.5" style="enable-background:new 0 0 519.5 72.5;" xml:space="preserve">
<style type="text/css">
	.st0{fill:#555555;}
</style>
<path class="st0" d="M9.1,36.3c0,15,12.2,27.2,27.2,27.2s27.2-12.2,27.2-27.2S51.3,9.1,36.3,9.1C21.2,9.1,9.1,21.2,9.1,36.3z
	 M58.9,36c0,12.5-10.1,22.7-22.7,22.7S13.6,48.5,13.6,36s10.1-22.7,22.7-22.7S58.9,23.5,58.9,36z"/>
<path class="st0" d="M18.1,36.3c0,10,8.1,18.1,18.1,18.1s18.1-8.1,18.1-18.1s-8.1-18.1-18.1-18.1C26.2,18.1,18.1,26.2,18.1,36.3z
	 M49.8,36.3c0,7.5-6.1,13.6-13.6,13.6s-13.6-6.1-13.6-13.6s6.1-13.6,13.6-13.6S49.8,28.7,49.8,36.3z"/>
<path class="st0" d="M0,36.3c0,20,16.2,36.3,36.3,36.3H61c0,0,11.6,0.3,11.6-11.3v-25C72.5,16.2,56.3,0,36.3,0S0,16.2,0,36.3z
	 M68,36.3C68,53.8,53.8,68,36.3,68S4.5,53.8,4.5,36.3S18.7,4.5,36.3,4.5S68,18.7,68,36.3z"/>
<g>
	<path class="st0" d="M98.7,54.1V23.2c0-1,0.6-1.4,1.7-1.4c0.5,0,0.9,0.1,1.2,0.4c0.3,0.3,0.5,0.6,0.5,1v3.6
		c0.8-1.5,2.1-2.8,3.7-3.9c1.7-1.1,3.6-1.6,5.9-1.6c3.5,0,6.5,1.3,9.1,3.9c2.5,2.6,3.8,5.7,3.8,9.3v19.6c0,1.1-0.6,1.6-1.8,1.6
		c-1.1,0-1.7-0.5-1.7-1.6V34.5c0-2.5-1-4.8-2.9-6.8s-4.2-3-6.8-3c-2.4,0-4.6,0.9-6.5,2.7c-1.9,1.8-2.8,4.2-2.8,7.1v19.6
		c0,0.4-0.2,0.7-0.5,1.1c-0.4,0.3-0.8,0.5-1.3,0.5s-0.9-0.2-1.2-0.5C98.9,54.9,98.7,54.5,98.7,54.1z"/>
	<path class="st0" d="M132.5,42.8v-8.5c0-3.5,1.3-6.6,3.9-9.1c2.6-2.5,5.7-3.8,9.3-3.8c3.5,0,6.6,1.2,9.1,3.7
		c2.6,2.5,3.9,5.6,3.9,9.3c0,1.3-0.2,2.3-0.5,3.1s-0.8,1.4-1.5,1.7s-1.3,0.5-1.8,0.6s-1.3,0.1-2.3,0.1H136v3c0,3,1.1,5.4,3.2,7.3
		c2.2,1.8,4.9,2.7,8.3,2.7c1.7,0,3.2-0.2,4.4-0.7s2.1-1,2.7-1.4c0.6-0.5,1.1-0.7,1.4-0.7c0.4,0,0.8,0.2,1.1,0.6
		c0.3,0.4,0.5,0.8,0.5,1.1c0,0.9-1,1.9-3,2.9s-4.4,1.5-7.3,1.5c-4.4,0-8-1.2-10.8-3.7C133.9,50,132.5,46.8,132.5,42.8z M136,36.9
		h15.3c1.6,0,2.7-0.2,3.2-0.5s0.8-1,0.8-2.1c0-2.5-0.9-4.8-2.7-6.8s-4.1-3-6.9-3c-2.7,0-5,0.9-6.9,2.8S136,31.4,136,34L136,36.9
		L136,36.9z"/>
	<path class="st0" d="M163.8,46.6c0-3.6,1.4-6.1,4.3-7.5c2.8-1.4,7-2.1,12.5-2.1h3.9v-1.9c0-2.9-0.8-5.4-2.3-7.4
		c-1.5-2.1-3.8-3.1-6.8-3.1c-1.8,0-3.5,0.3-5.1,1s-2.4,1-2.4,1c-0.5,0-0.9-0.2-1.1-0.6c-0.3-0.4-0.4-0.9-0.4-1.3c0-0.8,1-1.6,3-2.3
		c2-0.7,4.1-1,6.3-1c4.3,0,7.4,1.3,9.4,3.9s3,5.9,3,9.9v19c0,0.4-0.2,0.8-0.5,1.1s-0.7,0.5-1.2,0.5s-0.9-0.2-1.2-0.5
		s-0.5-0.7-0.5-1.1v-3.4c-3.2,3.6-6.8,5.5-10.8,5.5c-2.9,0-5.3-0.8-7.1-2.4C164.7,52.1,163.8,49.7,163.8,46.6z M167.3,46.5
		c0,2.2,0.6,3.8,1.9,4.8c1.3,1.1,2.9,1.6,5,1.6c2.4,0,4.8-0.9,6.9-2.6c2.2-1.7,3.3-3.5,3.3-5.1v-5.3h-3.5c-2.1,0-3.8,0.1-5.2,0.2
		c-1.4,0.1-2.8,0.4-4.2,0.8c-1.4,0.4-2.4,1.1-3.2,2C167.7,43.8,167.3,45,167.3,46.5z"/>
	<path class="st0" d="M197.1,54.1V23.2c0-1,0.6-1.4,1.7-1.4c0.5,0,0.9,0.1,1.2,0.4s0.5,0.6,0.5,1v3.7c0.9-1.6,2.1-2.9,3.8-4
		s3.7-1.6,5.9-1.6h2.6c0.4,0,0.8,0.2,1.1,0.5s0.5,0.7,0.5,1.2s-0.2,0.9-0.5,1.2c-0.3,0.3-0.7,0.5-1.1,0.5h-2.6c-2.6,0-4.8,1-6.8,2.9
		c-1.9,1.9-2.9,4.5-2.9,7.6v19c0,0.4-0.2,0.7-0.5,1.1c-0.4,0.3-0.8,0.5-1.3,0.5s-0.9-0.2-1.2-0.5C197.3,54.9,197.1,54.5,197.1,54.1z
		"/>
	<path class="st0" d="M220,54.1v-52c0-0.4,0.2-0.8,0.5-1.1s0.7-0.4,1.2-0.4s1,0.1,1.3,0.4s0.5,0.6,0.5,1.1v24.6
		c0.9-1.6,2.1-2.9,3.8-3.9s3.6-1.5,5.8-1.5c3.5,0,6.6,1.3,9.1,3.8c2.5,2.6,3.8,5.7,3.8,9.3v8.3c0,3.5-1.3,6.6-3.8,9.3
		c-2.6,2.7-5.5,4-8.9,4c-2.1,0-4.1-0.5-5.9-1.6c-1.8-1.1-3.1-2.3-3.9-3.9v3.4c0,0.4-0.2,0.7-0.5,1.1c-0.3,0.3-0.7,0.5-1.2,0.5
		s-0.9-0.2-1.2-0.5C220.2,54.9,220,54.5,220,54.1z M223.6,45.2c0,1.4,1,3,2.9,4.8s4.1,2.7,6.5,2.7c2.5,0,4.8-1,6.7-3.1
		c1.9-2,2.9-4.3,2.9-6.9v-8.3c0-2.5-1-4.8-2.9-6.8s-4.2-3-6.8-3c-2.4,0-4.6,0.9-6.5,2.7c-1.9,1.8-2.8,4.2-2.8,7.1L223.6,45.2
		L223.6,45.2z"/>
	<path class="st0" d="M250.4,23c0-0.5,0.2-0.9,0.6-1.2c0.4-0.3,0.9-0.5,1.4-0.5c0.7,0,1.2,0.3,1.3,0.9l10.2,27.7l9.9-27.7
		c0.3-0.6,0.8-0.9,1.4-0.9c0.5,0,0.9,0.2,1.4,0.5c0.4,0.3,0.6,0.7,0.6,1.2c0,0.2,0,0.4-0.1,0.6l-11.4,31l-1.5,4
		c-0.3,0.8-0.8,2-1.6,3.8c-0.8,1.8-1.5,3.1-2.1,4s-1.4,1.9-2.3,3s-1.9,1.9-2.9,2.4s-2.1,0.7-3.3,0.7c-1.1,0-1.6-0.6-1.6-1.7
		s0.4-1.7,1.3-1.7c4,0,7.4-4.9,10.4-14.7l-11.6-31C250.4,23.3,250.4,23.1,250.4,23z"/>
	<path class="st0" d="M297.6,70.9V23.2c0-1,0.6-1.4,1.7-1.4c0.5,0,0.9,0.1,1.2,0.4c0.3,0.3,0.5,0.6,0.5,1v3.6
		c2.1-3.6,5.3-5.5,9.6-5.5c3.5,0,6.6,1.3,9.1,3.8c2.5,2.6,3.8,5.7,3.8,9.3v8.3c0,3.5-1.3,6.6-3.8,9.3c-2.6,2.7-5.5,4-8.9,4
		c-2.1,0-4-0.5-5.8-1.6s-3.1-2.3-3.9-3.9v20.3c0,0.4-0.2,0.7-0.5,1.1c-0.4,0.3-0.8,0.5-1.3,0.5s-0.9-0.2-1.2-0.5
		C297.7,71.7,297.6,71.4,297.6,70.9z M301.1,45.2c0,1.4,1,3,2.9,4.8s4.1,2.7,6.5,2.7c2.5,0,4.8-1,6.7-3.1c1.9-2,2.9-4.3,2.9-6.9
		v-8.3c0-2.5-1-4.8-2.9-6.8s-4.2-3-6.8-3c-2.4,0-4.6,0.9-6.5,2.7c-1.9,1.8-2.8,4.2-2.8,7.1L301.1,45.2L301.1,45.2z"/>
	<path class="st0" d="M332.2,54.1v-52c0-0.4,0.2-0.8,0.5-1.1s0.7-0.4,1.2-0.4s1,0.1,1.3,0.4s0.5,0.6,0.5,1.1V54
		c0,0.4-0.2,0.7-0.5,1.1c-0.4,0.3-0.8,0.5-1.3,0.5s-0.9-0.2-1.2-0.5C332.4,54.9,332.2,54.5,332.2,54.1z"/>
	<path class="st0" d="M343.4,46.6c0-3.6,1.4-6.1,4.3-7.5c2.8-1.4,7-2.1,12.5-2.1h3.9v-1.9c0-2.9-0.8-5.4-2.3-7.4
		c-1.5-2.1-3.8-3.1-6.8-3.1c-1.8,0-3.5,0.3-5.1,1s-2.4,1-2.4,1c-0.5,0-0.9-0.2-1.1-0.6c-0.3-0.4-0.4-0.9-0.4-1.3c0-0.8,1-1.6,3-2.3
		c2-0.7,4.1-1,6.3-1c4.3,0,7.4,1.3,9.4,3.9s3,5.9,3,9.9v19c0,0.4-0.2,0.8-0.5,1.1s-0.7,0.5-1.2,0.5s-0.9-0.2-1.2-0.5
		c-0.3-0.3-0.5-0.7-0.5-1.1v-3.4c-3.2,3.6-6.8,5.5-10.8,5.5c-2.9,0-5.3-0.8-7.1-2.4C344.4,52.1,343.4,49.7,343.4,46.6z M347,46.5
		c0,2.2,0.6,3.8,1.9,4.8c1.3,1.1,2.9,1.6,5,1.6c2.4,0,4.8-0.9,6.9-2.6c2.2-1.7,3.3-3.5,3.3-5.1v-5.3h-3.5c-2.1,0-3.8,0.1-5.2,0.2
		c-1.4,0.1-2.8,0.4-4.2,0.8c-1.4,0.4-2.4,1.1-3.2,2C347.3,43.8,347,45,347,46.5z"/>
	<path class="st0" d="M376.6,45.4V6.8c0-0.4,0.2-0.8,0.5-1.1c0.4-0.3,0.8-0.4,1.2-0.4c0.5,0,0.9,0.1,1.3,0.4s0.5,0.6,0.5,1.1v14.9
		h9.6c0.4,0,0.7,0.2,1,0.5s0.4,0.7,0.4,1.1s-0.1,0.7-0.4,1s-0.6,0.5-0.9,0.5h-9.6v20.5c0,2.5,0.5,4.3,1.7,5.4c1.1,1.1,3,1.6,5.7,1.6
		h1.8c0.5,0,0.9,0.2,1.2,0.5c0.3,0.3,0.5,0.7,0.5,1.2c0,0.4-0.2,0.8-0.5,1.1s-0.7,0.5-1.2,0.5h-1.8
		C380.3,55.6,376.6,52.2,376.6,45.4z"/>
	<path class="st0" d="M397.2,54.1V13.6c0-3.5,1.3-6.5,3.8-9.1s5.5-3.9,9-3.9h1.2c0.5,0,0.9,0.2,1.2,0.5c0.3,0.3,0.5,0.7,0.5,1.2
		s-0.2,0.9-0.5,1.1c-0.3,0.3-0.7,0.4-1.2,0.4h-0.9c-2.7,0-4.9,0.9-6.8,2.8c-1.8,1.9-2.8,4.1-2.8,6.7v8.3h10.6c0.4,0,0.8,0.2,1.1,0.5
		c0.3,0.3,0.4,0.7,0.4,1c0,0.4-0.1,0.8-0.4,1.1c-0.3,0.3-0.6,0.5-1.1,0.5h-10.6V54c0,0.4-0.2,0.8-0.5,1.1s-0.8,0.4-1.3,0.4
		C397.7,55.6,397.2,55.1,397.2,54.1z"/>
	<path class="st0" d="M415.7,42.8v-8.3c0-3.5,1.3-6.6,3.9-9.2s5.7-3.9,9.3-3.9c3.5,0,6.6,1.3,9.3,3.9c2.6,2.6,4,5.7,4,9.3v8.3
		c0,3.5-1.3,6.6-4,9.3s-5.7,4-9.2,4s-6.6-1.3-9.2-4C417,49.4,415.7,46.3,415.7,42.8z M419.2,42.8c0,2.6,0.9,4.9,2.8,6.9
		s4.2,3.1,6.8,3.1c2.6,0,4.9-1,6.8-3.1c1.9-2,2.9-4.3,2.9-6.9v-8.3c0-2.5-1-4.8-2.9-6.8s-4.2-3-6.8-3c-2.6,0-4.9,1-6.8,3
		s-2.8,4.3-2.8,6.8V42.8z"/>
	<path class="st0" d="M450.2,54.1V23.2c0-1,0.6-1.4,1.7-1.4c0.5,0,0.9,0.1,1.2,0.4c0.3,0.3,0.5,0.6,0.5,1v3.7c0.9-1.6,2.1-2.9,3.8-4
		c1.7-1.1,3.7-1.6,5.9-1.6h2.6c0.4,0,0.8,0.2,1.1,0.5c0.3,0.3,0.5,0.7,0.5,1.2s-0.2,0.9-0.5,1.2c-0.3,0.3-0.7,0.5-1.1,0.5h-2.6
		c-2.6,0-4.8,1-6.8,2.9c-1.9,1.9-2.9,4.5-2.9,7.6v19c0,0.4-0.2,0.7-0.5,1.1c-0.4,0.3-0.8,0.5-1.3,0.5s-0.9-0.2-1.2-0.5
		C450.4,54.9,450.2,54.5,450.2,54.1z"/>
	<path class="st0" d="M473.1,54.1V23.2c0-1,0.6-1.4,1.7-1.4c0.5,0,0.9,0.1,1.2,0.4c0.3,0.3,0.5,0.6,0.5,1v3.6
		c2.1-3.6,5.3-5.5,9.6-5.5c2.3,0,4.4,0.6,6.3,1.9c1.8,1.3,3.2,3,4.2,5.2c1.2-2.3,2.8-4.1,4.7-5.4c2-1.2,4-1.8,6.2-1.8
		c3.3,0,6.1,1.2,8.4,3.6c2.3,2.4,3.5,5.6,3.5,9.6V54c0,0.4-0.2,0.7-0.5,1.1c-0.4,0.3-0.8,0.5-1.3,0.5s-0.9-0.2-1.2-0.5
		s-0.5-0.7-0.5-1.1V34.5c0-3.1-0.9-5.5-2.7-7.2s-3.8-2.6-6.1-2.6c-2.4,0-4.5,0.9-6.4,2.7c-1.8,1.8-2.8,4-2.8,6.8v20
		c0,1-0.6,1.5-1.8,1.5c-1.1,0-1.7-0.5-1.7-1.5v-20c0-2.7-0.9-4.9-2.6-6.8c-1.7-1.8-3.8-2.8-6.2-2.8c-2.4,0-4.5,0.9-6.4,2.7
		c-1.8,1.8-2.8,4.2-2.8,7.1V54c0,0.4-0.2,0.7-0.5,1.1c-0.4,0.3-0.8,0.5-1.3,0.5s-0.9-0.2-1.2-0.5C473.3,54.9,473.1,54.5,473.1,54.1z
		"/>
</g>
</svg>
